<svg width="655" height="502" viewBox="0 0 655 502" fill="none" xmlns="http://www.w3.org/2000/svg">
<g clip-path="url(#clip0_61_13)">
<path d="M523.356 375.14C523.882 374.252 526.159 375.203 526.578 374.397C526.995 373.595 524.879 372.372 523.67 369.578C523.452 369.074 522.079 365.9 523.096 364.92C525.023 363.064 533.843 370.726 536.93 368.218C537.607 367.668 538.08 366.57 540.131 364.786C540.946 364.076 541.439 363.756 541.917 363.875C542.594 364.044 542.648 364.951 543.374 366.733C544.463 369.406 545.107 369.244 545.742 371.377C546.213 372.96 546.105 373.88 546.659 374.059C547.444 374.313 548.166 372.634 549.16 372.784C550.174 372.938 550.788 374.893 550.981 376.357C551.345 379.103 550.336 380.916 549.777 382.822C549.169 384.893 548.809 388.043 550.212 392.502L564.1 431.631C561.034 423.602 552.156 401.592 548.426 393.413C547.349 391.052 546.16 388.657 543.718 387.711C541.368 386.801 538.14 387.345 534.024 386.353C533.544 386.237 532.21 385.898 532.042 385.114C531.903 384.465 532.688 384.103 532.567 383.495C532.405 382.681 530.863 382.671 528.967 381.731C527.63 381.068 526.797 380.279 526.081 379.601C525.865 379.397 522.655 376.321 523.356 375.14H523.356Z" fill="#818B7A"/>
<path d="M577.995 395.739C578.582 395.741 578.773 397.133 579.289 397.106C579.803 397.079 579.793 395.688 580.815 394.289C581 394.037 582.161 392.446 582.936 392.663C584.403 393.073 583.187 399.613 585.308 400.404C585.774 400.578 586.45 400.493 587.917 400.985C588.5 401.181 588.8 401.33 588.879 401.599C588.991 401.98 588.562 402.268 587.897 403.139C586.899 404.444 587.164 404.714 586.301 405.641C585.66 406.328 585.177 406.541 585.249 406.865C585.351 407.323 586.383 407.193 586.596 407.724C586.813 408.267 586.031 409.132 585.368 409.649C584.125 410.62 582.944 410.648 581.848 410.923C580.656 411.223 579.006 411.955 577.222 413.93L562.024 432.036C565.081 428.215 573.322 417.507 576.26 413.316C577.108 412.106 577.94 410.832 577.7 409.361C577.468 407.944 576.27 406.517 575.569 404.211C575.488 403.941 575.269 403.189 575.606 402.88C575.884 402.625 576.288 402.905 576.552 402.671C576.905 402.357 576.465 401.596 576.379 400.395C576.319 399.547 576.465 398.911 576.591 398.364C576.629 398.199 577.213 395.736 577.995 395.739V395.739Z" fill="#818B7A"/>
<path d="M566.275 398.37L566.629 395.21L566.467 394.971C565.719 393.863 565.337 392.782 565.333 391.755C565.332 391.592 565.34 391.428 565.347 391.262C565.378 390.603 565.416 389.784 564.989 388.829C564.749 388.296 564.076 387.063 563.065 387.216C562.792 387.254 562.587 387.379 562.43 387.526C562.407 387.489 562.384 387.453 562.358 387.413C562.043 386.932 561.794 386.726 561.554 386.528C561.369 386.375 561.178 386.218 560.879 385.846C560.748 385.683 560.646 385.539 560.56 385.419C560.298 385.054 559.956 384.619 559.354 384.627C558.71 384.658 558.373 385.19 558.149 385.542C557.75 386.171 557.569 386.624 557.45 386.925C557.406 387.034 557.357 387.158 557.331 387.196C557.124 387.501 555.437 387.216 554.802 387.112C553.375 386.874 552.14 386.668 551.631 387.568C551.266 388.212 551.537 389.064 552.46 390.167C552.748 390.51 553.054 390.771 553.325 390.975C553.1 391.109 552.899 391.315 552.817 391.639C552.625 392.405 553.283 393.172 554.773 393.923C555.143 394.11 555.641 394.361 556.339 394.481C556.668 394.538 556.964 394.551 557.217 394.559C557.222 394.705 557.257 394.864 557.346 395.027C557.608 395.508 558.152 395.737 558.973 395.682C559.876 395.634 560.62 395.462 561.276 395.311C561.849 395.18 562.342 395.068 562.73 395.094C563.449 395.152 564.002 395.727 564.652 396.474L566.275 398.37V398.37Z" fill="#818B7A"/>
<path d="M564.633 379.558L567.599 380.702L567.872 380.606C569.133 380.163 570.276 380.068 571.271 380.324C571.429 380.365 571.585 380.414 571.744 380.463C572.373 380.66 573.156 380.905 574.188 380.734C574.764 380.637 576.127 380.299 576.236 379.282C576.268 379.009 576.2 378.778 576.098 378.59C576.139 378.577 576.18 378.563 576.225 378.549C576.77 378.366 577.032 378.177 577.285 377.995C577.479 377.855 577.68 377.71 578.116 377.516C578.307 377.43 578.472 377.368 578.61 377.315C579.029 377.154 579.536 376.934 579.682 376.349C579.816 375.719 579.386 375.257 579.102 374.952C578.595 374.406 578.203 374.117 577.942 373.925C577.847 373.855 577.74 373.775 577.71 373.741C577.467 373.463 578.171 371.904 578.432 371.316C579.025 369.996 579.537 368.853 578.796 368.133C578.265 367.617 577.373 367.663 576.072 368.276C575.667 368.467 575.337 368.697 575.07 368.907C574.998 368.656 574.85 368.409 574.557 368.248C573.865 367.868 572.956 368.31 571.852 369.56C571.577 369.871 571.208 370.289 570.915 370.934C570.777 371.237 570.688 371.52 570.617 371.763C570.474 371.731 570.312 371.724 570.131 371.769C569.6 371.9 569.24 372.369 569.085 373.177C568.902 374.062 568.88 374.826 568.86 375.498C568.841 376.086 568.824 376.592 568.7 376.96C568.462 377.64 567.765 378.03 566.879 378.469L564.633 379.558L564.633 379.558Z" fill="#818B7A"/>
<path d="M566.275 370.25L566.629 367.09L566.467 366.851C565.719 365.743 565.337 364.661 565.333 363.635C565.332 363.471 565.34 363.308 565.347 363.142C565.378 362.483 565.416 361.663 564.989 360.708C564.749 360.176 564.076 358.943 563.065 359.096C562.792 359.134 562.587 359.259 562.43 359.405C562.407 359.369 562.384 359.332 562.358 359.293C562.043 358.812 561.794 358.606 561.554 358.408C561.369 358.255 561.178 358.098 560.879 357.726C560.748 357.563 560.646 357.419 560.56 357.299C560.298 356.934 559.956 356.499 559.354 356.507C558.71 356.537 558.373 357.07 558.149 357.422C557.75 358.051 557.569 358.504 557.45 358.804C557.406 358.914 557.357 359.038 557.331 359.076C557.124 359.381 555.437 359.096 554.802 358.992C553.375 358.754 552.14 358.548 551.631 359.448C551.266 360.092 551.537 360.943 552.46 362.046C552.748 362.39 553.054 362.65 553.325 362.855C553.1 362.989 552.899 363.195 552.817 363.519C552.625 364.284 553.283 365.052 554.773 365.802C555.143 365.99 555.641 366.24 556.339 366.361C556.668 366.417 556.964 366.431 557.217 366.439C557.222 366.585 557.257 366.744 557.346 366.907C557.608 367.388 558.152 367.616 558.973 367.562C559.876 367.514 560.62 367.342 561.276 367.191C561.849 367.06 562.342 366.948 562.73 366.974C563.449 367.032 564.002 367.607 564.652 368.353L566.275 370.25V370.25Z" fill="#818B7A"/>
<path d="M563.042 431.58L563.704 431.165L563.864 430.4L563.704 431.165L564.476 431.253C564.488 431.182 564.53 431.017 564.593 430.759C564.939 429.346 565.992 425.047 566.871 418.276C567.485 413.55 567.832 408.691 567.903 403.832C567.975 398.965 567.745 395.281 567.56 392.319C567.42 390.086 567.251 387.959 567.085 385.887C566.642 380.352 566.225 375.124 566.536 369.336C566.604 368.044 566.748 365.354 568.32 362.492C569.231 360.832 570.487 359.358 572.052 358.113L571.079 356.89C569.351 358.266 567.962 359.898 566.95 361.741C565.208 364.915 565.05 367.845 564.975 369.253C564.659 375.144 565.081 380.423 565.528 386.011C565.693 388.075 565.862 390.193 566.001 392.417C566.184 395.351 566.412 399.003 566.341 403.807C566.271 408.608 565.928 413.408 565.323 418.075C564.455 424.76 563.416 428.995 563.075 430.387C562.894 431.13 562.856 431.285 563.042 431.58H563.042Z" fill="#818B7A"/>
<path d="M574.918 360.595C574.982 360.595 575.046 360.594 575.112 360.589C576.442 360.518 577.674 359.721 578.774 358.223C579.29 357.518 579.554 356.714 580.08 355.111C580.162 354.864 580.558 353.61 580.8 351.884C580.957 350.757 580.938 350.285 580.714 349.869C580.466 349.405 580.065 349.082 579.613 348.863C579.633 348.714 579.617 348.56 579.552 348.403C579.286 347.751 578.578 347.837 578.195 347.878C578.002 347.902 577.76 347.934 577.499 347.921C577.088 347.901 576.868 347.779 576.534 347.596C576.214 347.42 575.817 347.202 575.227 347.082C574.065 346.839 573.091 347.168 572.769 347.277C571.08 347.84 570.247 349.153 569.283 350.674C569.09 350.979 568.431 352.09 567.995 353.613C567.681 354.711 567.725 355.199 567.82 355.562C568.012 356.308 568.466 356.736 569.618 357.678C570.822 358.666 571.426 359.16 571.945 359.46C573.152 360.158 573.911 360.595 574.918 360.595V360.595Z" fill="#818B7A"/>
<path d="M78.3554 376.14C78.8817 375.252 81.1588 376.203 81.5775 375.397C81.9946 374.595 79.8789 373.372 78.6702 370.578C78.4523 370.074 77.0786 366.9 78.0955 365.92C80.0229 364.064 88.843 371.726 91.9296 369.218C92.607 368.668 93.0802 367.57 95.1304 365.786C95.946 365.076 96.4392 364.756 96.9164 364.875C97.5937 365.044 97.6474 365.951 98.3736 367.733C99.4627 370.406 100.107 370.244 100.741 372.377C101.212 373.96 101.105 374.88 101.659 375.059C102.444 375.313 103.166 373.634 104.16 373.784C105.174 373.938 105.787 375.893 105.981 377.357C106.345 380.103 105.336 381.916 104.777 383.822C104.169 385.893 103.809 389.043 105.212 393.502L119.1 432.631C116.034 424.602 107.156 402.592 103.426 394.413C102.349 392.052 101.16 389.657 98.7183 388.711C96.3677 387.801 93.1395 388.345 89.024 387.353C88.5433 387.237 87.2095 386.898 87.0416 386.114C86.9028 385.465 87.6874 385.103 87.5668 384.495C87.4051 383.681 85.8623 383.671 83.9664 382.731C82.6296 382.068 81.7967 381.279 81.0804 380.601C80.8645 380.397 77.6547 377.321 78.3554 376.14V376.14Z" fill="#818B7A"/>
<path d="M132.995 396.739C133.582 396.741 133.773 398.133 134.289 398.106C134.803 398.079 134.793 396.688 135.815 395.289C135.999 395.037 137.161 393.446 137.935 393.663C139.403 394.073 138.187 400.613 140.308 401.404C140.774 401.578 141.449 401.493 142.916 401.985C143.5 402.181 143.799 402.33 143.879 402.599C143.991 402.98 143.562 403.268 142.896 404.139C141.899 405.444 142.164 405.714 141.3 406.641C140.659 407.328 140.177 407.541 140.249 407.865C140.35 408.323 141.383 408.193 141.596 408.724C141.813 409.267 141.031 410.132 140.368 410.649C139.125 411.62 137.944 411.648 136.848 411.923C135.656 412.223 134.006 412.955 132.222 414.93L117.024 433.036C120.08 429.215 128.322 418.507 131.26 414.316C132.108 413.106 132.94 411.832 132.7 410.361C132.468 408.944 131.27 407.517 130.569 405.211C130.487 404.941 130.269 404.189 130.606 403.88C130.884 403.625 131.288 403.905 131.551 403.671C131.905 403.357 131.464 402.596 131.379 401.395C131.318 400.547 131.465 399.911 131.591 399.364C131.629 399.199 132.212 396.736 132.995 396.739V396.739Z" fill="#818B7A"/>
<path d="M121.274 399.37L121.628 396.21L121.467 395.971C120.718 394.863 120.337 393.782 120.332 392.755C120.332 392.592 120.339 392.428 120.347 392.262C120.377 391.603 120.416 390.784 119.988 389.829C119.749 389.296 119.076 388.063 118.065 388.216C117.792 388.254 117.586 388.379 117.43 388.526C117.407 388.489 117.383 388.453 117.358 388.413C117.043 387.932 116.794 387.726 116.553 387.528C116.369 387.375 116.178 387.218 115.879 386.846C115.748 386.683 115.646 386.539 115.56 386.419C115.298 386.054 114.956 385.619 114.354 385.627C113.71 385.658 113.372 386.19 113.149 386.542C112.75 387.171 112.569 387.624 112.45 387.925C112.406 388.034 112.356 388.158 112.331 388.196C112.124 388.501 110.437 388.216 109.802 388.112C108.375 387.874 107.14 387.668 106.631 388.568C106.266 389.212 106.537 390.064 107.46 391.167C107.748 391.51 108.053 391.771 108.325 391.975C108.1 392.109 107.899 392.315 107.817 392.639C107.625 393.405 108.283 394.172 109.773 394.923C110.143 395.11 110.641 395.361 111.339 395.481C111.668 395.538 111.964 395.551 112.217 395.559C112.222 395.705 112.257 395.864 112.346 396.027C112.607 396.508 113.152 396.737 113.973 396.682C114.876 396.634 115.62 396.462 116.276 396.311C116.849 396.18 117.342 396.068 117.73 396.094C118.448 396.152 119.002 396.727 119.652 397.474L121.274 399.37V399.37Z" fill="#818B7A"/>
<path d="M119.633 380.558L122.599 381.702L122.872 381.606C124.133 381.163 125.276 381.068 126.27 381.324C126.429 381.365 126.584 381.414 126.743 381.463C127.373 381.66 128.156 381.905 129.188 381.734C129.764 381.637 131.127 381.299 131.236 380.282C131.268 380.009 131.199 379.778 131.097 379.59C131.139 379.577 131.18 379.563 131.225 379.549C131.77 379.366 132.032 379.177 132.285 378.995C132.479 378.855 132.68 378.71 133.116 378.516C133.307 378.43 133.471 378.368 133.61 378.315C134.029 378.154 134.536 377.934 134.682 377.349C134.815 376.719 134.386 376.257 134.102 375.952C133.595 375.406 133.202 375.117 132.942 374.925C132.847 374.855 132.74 374.775 132.709 374.741C132.467 374.463 133.171 372.904 133.432 372.316C134.024 370.996 134.537 369.853 133.795 369.133C133.265 368.617 132.373 368.663 131.072 369.276C130.667 369.467 130.337 369.697 130.07 369.907C129.997 369.656 129.849 369.409 129.557 369.248C128.865 368.868 127.956 369.31 126.852 370.56C126.576 370.871 126.208 371.289 125.915 371.934C125.777 372.237 125.688 372.52 125.617 372.763C125.474 372.731 125.311 372.724 125.131 372.769C124.6 372.9 124.24 373.369 124.085 374.177C123.902 375.062 123.88 375.826 123.859 376.498C123.841 377.086 123.824 377.592 123.7 377.96C123.462 378.64 122.765 379.03 121.879 379.469L119.633 380.558L119.633 380.558Z" fill="#818B7A"/>
<path d="M121.274 371.25L121.628 368.09L121.467 367.851C120.718 366.743 120.337 365.661 120.332 364.635C120.332 364.471 120.339 364.308 120.347 364.142C120.377 363.483 120.416 362.663 119.988 361.708C119.749 361.176 119.076 359.943 118.065 360.096C117.792 360.134 117.586 360.259 117.43 360.405C117.407 360.369 117.383 360.332 117.358 360.293C117.043 359.812 116.794 359.606 116.553 359.408C116.369 359.255 116.178 359.098 115.879 358.726C115.748 358.563 115.646 358.419 115.56 358.299C115.298 357.934 114.956 357.499 114.354 357.507C113.71 357.537 113.372 358.07 113.149 358.422C112.75 359.051 112.569 359.504 112.45 359.804C112.406 359.914 112.356 360.038 112.331 360.076C112.124 360.381 110.437 360.096 109.802 359.992C108.375 359.754 107.14 359.548 106.631 360.448C106.266 361.092 106.537 361.943 107.46 363.046C107.748 363.39 108.053 363.65 108.325 363.855C108.1 363.989 107.899 364.195 107.817 364.519C107.625 365.284 108.283 366.052 109.773 366.802C110.143 366.99 110.641 367.24 111.339 367.361C111.668 367.417 111.964 367.431 112.217 367.439C112.222 367.585 112.257 367.744 112.346 367.907C112.607 368.388 113.152 368.616 113.973 368.562C114.876 368.514 115.62 368.342 116.276 368.191C116.849 368.06 117.342 367.948 117.73 367.974C118.448 368.032 119.002 368.607 119.652 369.353L121.274 371.25V371.25Z" fill="#818B7A"/>
<path d="M118.042 432.58L118.704 432.165L118.864 431.4L118.704 432.165L119.476 432.253C119.488 432.182 119.53 432.017 119.593 431.759C119.939 430.346 120.992 426.047 121.871 419.276C122.485 414.55 122.832 409.691 122.903 404.832C122.975 399.965 122.745 396.281 122.56 393.319C122.42 391.086 122.251 388.959 122.085 386.887C121.642 381.352 121.225 376.124 121.536 370.336C121.604 369.044 121.748 366.354 123.32 363.492C124.231 361.832 125.487 360.358 127.052 359.113L126.079 357.89C124.351 359.266 122.962 360.898 121.95 362.741C120.208 365.915 120.05 368.845 119.975 370.253C119.659 376.144 120.081 381.423 120.528 387.011C120.693 389.075 120.862 391.193 121.001 393.417C121.184 396.351 121.412 400.003 121.341 404.807C121.271 409.608 120.928 414.408 120.323 419.075C119.455 425.76 118.416 429.995 118.075 431.387C117.894 432.13 117.856 432.285 118.042 432.58V432.58Z" fill="#818B7A"/>
<path d="M129.917 361.595C129.981 361.595 130.046 361.594 130.112 361.589C131.442 361.518 132.674 360.721 133.774 359.223C134.29 358.518 134.554 357.714 135.08 356.111C135.162 355.864 135.558 354.61 135.799 352.884C135.957 351.757 135.937 351.285 135.714 350.869C135.466 350.405 135.065 350.082 134.613 349.863C134.633 349.714 134.617 349.56 134.552 349.403C134.286 348.751 133.578 348.837 133.195 348.878C133.001 348.902 132.76 348.934 132.499 348.921C132.088 348.901 131.868 348.779 131.534 348.596C131.214 348.42 130.817 348.202 130.227 348.082C129.064 347.839 128.09 348.168 127.769 348.277C126.08 348.84 125.247 350.153 124.282 351.674C124.09 351.979 123.43 353.09 122.995 354.613C122.68 355.711 122.725 356.199 122.819 356.562C123.012 357.308 123.465 357.736 124.618 358.678C125.822 359.666 126.426 360.16 126.945 360.46C128.152 361.158 128.91 361.595 129.917 361.595V361.595Z" fill="#818B7A"/>
<path d="M333.725 195.1C296.169 195.1 265.725 164.656 265.725 127.1C265.725 89.5451 296.169 59.1005 333.725 59.1005C371.28 59.1005 401.725 89.5451 401.725 127.1C401.725 164.656 371.28 195.1 333.725 195.1Z" fill="#D84864"/>
<path d="M71 431.164C71 431.628 71.3761 432.004 71.84 432.004H654.04V430.324H71.84C71.3761 430.324 71 430.701 71 431.164V431.164Z" fill="#818B7A"/>
<path d="M158.725 431.1C158.725 469.208 154.725 497.1 196.225 500.1C240.788 503.322 233.725 469.208 233.725 431.1C233.725 392.993 239.725 355.1 196.225 362.1C175.777 365.391 158.725 392.993 158.725 431.1Z" fill="#3D564C"/>
<path d="M221.725 479.1C218.411 479.1 215.725 457.61 215.725 431.1C215.725 404.591 218.411 383.1 221.725 383.1C225.038 383.1 227.725 404.591 227.725 431.1C227.725 457.61 225.038 479.1 221.725 479.1Z" fill="#818B7A"/>
<path d="M459.087 369.734C459.087 403.363 455.557 427.978 492.18 430.625C531.506 433.468 525.273 403.363 525.273 369.734C525.273 336.105 530.568 302.665 492.18 308.843C474.135 311.746 459.087 336.105 459.087 369.734Z" fill="#3D564C"/>
<path d="M514.683 412.093C511.759 412.093 509.388 393.128 509.388 369.734C509.388 346.34 511.759 327.375 514.683 327.375C517.607 327.375 519.978 346.34 519.978 369.734C519.978 393.128 517.607 412.093 514.683 412.093Z" fill="#818B7A"/>
<path d="M402.225 430.6C402.225 468.708 398.225 496.6 439.725 499.6C484.288 502.822 477.225 468.708 477.225 430.6C477.225 392.493 483.225 354.6 439.725 361.6C419.277 364.891 402.225 392.493 402.225 430.6Z" fill="#3D564C"/>
<path d="M465.225 478.6C461.911 478.6 459.225 457.11 459.225 430.6C459.225 404.091 461.911 382.6 465.225 382.6C468.538 382.6 471.225 404.091 471.225 430.6C471.225 457.11 468.538 478.6 465.225 478.6Z" fill="#818B7A"/>
<path d="M520.725 289.1V312.754L527.225 323.6L525.225 361.6L523.607 362.6L524.725 324.1C513.332 319.859 509.606 327.672 510.725 343.1L512.725 369.1L480.725 389.1L476.725 348.1L461.725 341.1L445.225 410.6H168.776C157.381 410.6 148.274 401.118 148.736 389.731L152.225 303.6L161.638 294.187L170.358 193.322C172.533 168.169 193.862 149.024 219.103 149.568L392.037 153.295C401.419 153.497 410.688 155.386 419.401 158.871L461.225 175.6L488.221 202.597L492.225 267.6L502.432 266.713C509.775 266.074 516.472 270.927 518.151 278.103L520.725 289.1H520.725Z" fill="#818B7A"/>
<path d="M431.225 382.6C425.702 382.6 421.225 378.123 421.225 372.6C421.225 367.078 425.702 362.6 431.225 362.6C436.747 362.6 441.225 367.078 441.225 372.6C441.225 378.123 436.747 382.6 431.225 382.6Z" fill="#3D564C"/>
<path d="M408.225 382.6C402.702 382.6 398.225 378.123 398.225 372.6C398.225 367.078 402.702 362.6 408.225 362.6C413.747 362.6 418.225 367.078 418.225 372.6C418.225 378.123 413.747 382.6 408.225 382.6Z" fill="#3D564C"/>
<path d="M184.225 382.6C178.702 382.6 174.225 378.123 174.225 372.6C174.225 367.078 178.702 362.6 184.225 362.6C189.747 362.6 194.225 367.078 194.225 372.6C194.225 378.123 189.747 382.6 184.225 382.6Z" fill="#3D564C"/>
<path d="M161.225 382.6C155.702 382.6 151.225 378.123 151.225 372.6C151.225 367.078 155.702 362.6 161.225 362.6C166.747 362.6 171.225 367.078 171.225 372.6C171.225 378.123 166.747 382.6 161.225 382.6Z" fill="#3D564C"/>
<path d="M176.83 278.672H411.924C413.721 278.672 415.394 277.956 416.634 276.655C417.875 275.354 418.511 273.649 418.426 271.854L414.992 199.229C414.829 195.796 412.009 193.071 408.573 193.027L186.588 190.17C183.311 190.138 180.468 192.569 180.047 195.851L170.373 271.334C170.135 273.188 170.707 275.057 171.942 276.462C173.178 277.866 174.96 278.672 176.83 278.672H176.83Z" fill="white"/>
<path d="M444.748 275.1H460.002C461.812 275.1 463.554 274.339 464.782 273.01C466.011 271.68 466.634 269.884 466.492 268.079L462.101 212.358C461.86 209.299 459.57 206.858 456.532 206.425L440.77 204.173C438.796 203.892 436.831 204.514 435.38 205.884C433.93 207.254 433.194 209.179 433.362 211.166L438.261 269.139C438.548 272.537 441.337 275.1 444.748 275.1V275.1Z" fill="white"/>
<path d="M479.827 273.684C479.985 273.684 480.144 273.679 480.302 273.668L482.093 273.54C483.862 273.413 485.466 272.597 486.609 271.24C487.752 269.883 488.283 268.164 488.107 266.398L483.18 217.125C482.888 214.208 480.665 211.834 477.772 211.351C475.801 211.02 473.82 211.602 472.338 212.942C470.856 214.28 470.079 216.191 470.205 218.184L473.342 267.587C473.453 269.332 474.239 270.927 475.556 272.077C476.753 273.123 478.255 273.684 479.827 273.684L479.827 273.684Z" fill="white"/>
<path d="M504.631 374.214L507.225 317.601C507.225 317.601 513.225 309.601 517.225 311.601C521.225 313.601 527.166 324.723 527.166 324.723C527.166 324.723 515.572 323.963 515.898 336.282C516.225 348.601 513.912 368.53 513.912 368.53L504.631 374.214V374.214Z" fill="#CCCCCC"/>
<path d="M480.481 389.006L479.225 346.77L466.504 331.746C466.504 331.746 449.504 328.073 449.864 347.337C450.225 366.6 444.725 411.1 444.725 411.1L457.156 403.293C457.156 403.293 460.225 355.6 469.225 350.6C478.225 345.6 475.225 349.6 475.225 349.6L480.481 389.006H480.481Z" fill="#CCCCCC"/>
<path d="M493.729 280.732L503.584 275.1H502.508C500.971 275.1 499.725 273.854 499.725 272.317V247.884C499.725 246.347 500.971 245.1 502.508 245.1H512.941C514.479 245.1 515.725 246.347 515.725 247.884V272.317C515.725 273.854 514.479 275.1 512.941 275.1H507.615L494.721 282.469L493.729 280.732V280.732Z" fill="#3D564C"/>
<path d="M480.413 317.342L488.102 315.131C489.959 314.597 491.898 315.67 492.433 317.528C492.967 319.385 491.894 321.324 490.036 321.859L482.348 324.07C480.49 324.604 478.551 323.531 478.017 321.673C477.483 319.815 478.556 317.876 480.413 317.342Z" fill="#3D564C"/>
<path d="M167.196 246.35L200.07 244.931C202.001 244.848 203.634 246.346 203.718 248.277C203.801 250.208 202.303 251.841 200.372 251.925L167.498 253.344C165.566 253.427 163.933 251.929 163.85 249.998C163.767 248.067 165.265 246.434 167.196 246.35Z" fill="#3D564C"/>
<path d="M136.196 312.35L169.07 310.931C171.001 310.848 172.634 312.346 172.718 314.277C172.801 316.208 171.303 317.841 169.372 317.925L136.498 319.344C134.566 319.427 132.933 317.929 132.85 315.998C132.767 314.067 134.264 312.434 136.196 312.35Z" fill="#3D564C"/>
<path d="M270.225 388.6C228.251 388.6 194.225 354.574 194.225 312.6C194.225 270.627 228.251 236.6 270.225 236.6C312.198 236.6 346.225 270.627 346.225 312.6C346.225 354.574 312.198 388.6 270.225 388.6Z" fill="#3D564C"/>
<path d="M270.225 357.6C245.372 357.6 225.225 337.453 225.225 312.6C225.225 287.748 245.372 267.6 270.225 267.6C295.077 267.6 315.225 287.748 315.225 312.6C315.225 337.453 295.077 357.6 270.225 357.6Z" fill="#818B7A"/>
<path d="M169.533 161.667C169.151 166.103 166.552 169.502 163.729 169.258C160.905 169.014 158.927 165.221 159.311 160.783C159.439 159.008 159.991 157.29 160.92 155.772L162.778 136.995L171.571 138.055L168.806 156.453C169.461 158.108 169.711 159.896 169.533 161.667L169.533 161.667Z" fill="#FFB6B6"/>
<path d="M194.982 52.9745C194.982 52.9745 185.28 50.2418 181.551 54.8686C177.821 59.4955 163.911 104.932 163.911 104.932L159.592 153.834L173.365 149.666L178.725 111.1L187.725 91.1004L194.982 52.9745V52.9745Z" fill="#7FA644"/>
<path d="M198.149 23.5579H227.717V51.5964H198.149V23.5579Z" fill="#33412E"/>
<path d="M213.246 37.8429C205.284 37.8429 198.829 31.3883 198.829 23.4262C198.829 15.4641 205.284 9.00952 213.246 9.00952C221.208 9.00952 227.662 15.4641 227.662 23.4262C227.662 31.3883 221.208 37.8429 213.246 37.8429Z" fill="#FFB6B6"/>
<path d="M220.07 0.107427C229.284 1.53357 228.845 4.95737 231.795 6.73473C236.993 9.86605 239.044 18.9084 236.299 24.8753C235.565 26.4696 234.019 28.6445 234.769 30.9928C235.345 32.7955 237.006 33.8589 237.318 34.0515C239.871 35.6278 238.204 33.7526 239.357 35.0711C240.631 36.5265 238.658 38.5823 239.867 41.1886C240.939 43.4993 243.149 43.3042 243.436 44.7572C243.93 47.2592 238.257 52.2899 232.22 51.8943C226.845 51.5421 222.852 46.9977 221.515 42.718C220.619 39.8512 220.233 34.92 222.534 32.5222C222.857 32.1859 223.74 31.3715 224.573 29.9732C225.233 28.8667 226.102 27.4101 225.593 26.4047C225.051 25.3335 223.513 25.8973 222.534 24.8753C221.206 23.4893 222.784 21.1476 222.534 18.7578C222.111 14.711 216.377 9.84393 210.299 10.6011C203.404 11.46 200.875 18.958 200.613 19.7773C200.071 21.4756 200.082 23.1186 200.103 26.4046C200.134 31.1203 200.154 34.076 201.633 37.1103C203.76 41.4745 206.47 41.003 207.24 44.2474C208.442 49.3058 202.789 54.3862 202.143 54.953C197.349 59.1553 190.109 60.4188 188.888 58.5216C187.788 56.8118 192.617 54.1523 192.457 48.8355C192.318 44.228 188.589 42.8235 189.398 39.6592C190.288 36.1761 195.038 36.9707 197.045 33.0319C198.918 29.3555 195.466 27.3157 196.025 19.7773C196.143 18.1827 196.644 13.606 199.594 9.07171C200.893 7.07411 202.215 5.04247 204.692 3.97379C207.465 2.77741 215.196 -0.646943 220.07 0.107417V0.107427Z" fill="#33412E"/>
<path d="M226.187 12.8522C225.813 16.0091 221.073 17.5561 219.05 17.9501C218.193 18.117 215.299 18.681 212.423 17.4404C211.36 16.9818 210.973 16.5671 209.874 16.4208C208.386 16.2228 207.637 16.7886 205.286 17.4404C202.671 18.1652 201.364 18.5276 200.698 17.9501C199.608 17.0062 200.445 13.9183 201.717 11.8326C204.07 7.97615 208.375 6.78195 210.384 6.22492C212.678 5.58855 217.334 4.29714 221.599 6.73471C222.169 7.06061 226.567 9.64486 226.187 12.8522V12.8522Z" fill="#33412E"/>
<path d="M156.012 296.498L148.654 296.672L144.552 263.615L155.411 263.358L156.012 296.498Z" fill="#FFB6B6"/>
<path d="M130.767 311.85C130.767 313.093 131.649 314.1 132.737 314.1H147.342C147.342 314.1 148.78 308.323 154.64 305.837L155.044 314.1H162.579L161.666 300.812C161.666 300.812 163.681 293.703 159.496 290.069C155.31 286.435 158.7 286.941 158.7 286.941L157.053 278.717L145.668 280.056L145.584 292.966L140.059 305.781L131.955 309.784C131.234 310.14 130.767 310.952 130.767 311.85L130.767 311.85H130.767Z" fill="#33412E"/>
<path d="M189.466 231.751L182.27 230.202L185.999 197.1L196.618 199.386L189.466 231.751Z" fill="#FFB6B6"/>
<path d="M161.334 240.785C161.044 241.994 161.667 243.179 162.725 243.433L176.927 246.843C176.927 246.843 179.673 241.561 185.952 240.511L184.416 248.641L191.742 250.4L193.956 237.266C193.956 237.266 197.576 230.824 194.354 226.313C191.132 221.802 194.311 223.086 194.311 223.086L194.629 214.704L183.246 213.348L180.151 225.882L171.787 237.053L162.972 239.053C162.188 239.232 161.544 239.912 161.334 240.785H161.334V240.785Z" fill="#33412E"/>
<path d="M203.225 39.6005L221.225 40.6005L226.225 50.6005L245.225 60.6005L242.225 109.911L249.08 134.714L248.225 141.6L181.225 139.6L185.225 65.6005L184.225 53.6005L197.225 49.6005L203.225 39.6005Z" fill="#7FA644"/>
<path d="M247.725 132.1C247.725 132.1 262.725 158.604 247.725 162.352C241.052 164.02 233.983 165.143 228.191 165.877C221.257 166.755 214.874 161.995 213.725 155.1L197.725 210.1L181.725 206.1L178.725 177.471L159.284 196.911L161.725 275.1L143.725 274.1L124.725 189.1C124.725 189.1 123.725 183.1 138.725 175.1C153.725 167.1 180.725 141.1 180.725 141.1L226.725 127.1L247.725 132.1V132.1Z" fill="#33412E"/>
<path d="M216.225 149.6L242.225 132.6L210.225 98.6005C210.225 98.6005 192.225 91.6005 187.225 118.6C182.225 145.6 179.225 169.6 179.225 169.6L216.225 149.6Z" fill="#33412E"/>
<path d="M269.87 98.8486L268.73 91.1005C267.9 85.4538 271.645 80.5258 276.725 79.3127V76.1005C276.725 73.3391 278.963 71.1005 281.725 71.1005C284.486 71.1005 286.725 73.3391 286.725 76.1005V80.3854L305.725 84.4156V79.1005C305.725 76.339 307.963 74.1005 310.725 74.1005C313.486 74.1005 315.725 76.339 315.725 79.1005V84.152L317.614 83.6593C323.255 82.1877 327.711 88.6598 324.202 93.3155C324.157 93.3757 324.111 93.4359 324.064 93.4961C319.381 99.5177 318.042 104.87 318.042 104.87L321.388 122.935L317.578 160.493C317.087 165.333 312.92 168.96 308.058 168.78L271.065 167.41C266.207 167.23 262.318 163.313 262.185 158.453C261.714 141.142 261.66 103.467 269.87 98.8486V98.8486Z" fill="#3D564C"/>
<path d="M302.989 163.745C303.508 163.745 303.946 163.345 303.985 162.819L305.993 136.057C306.034 135.506 305.621 135.026 305.07 134.985C304.524 134.942 304.04 135.356 303.999 135.907L301.991 162.67C301.95 163.221 302.363 163.701 302.914 163.742C302.939 163.744 302.964 163.745 302.989 163.745V163.745Z" fill="#FFB6B6"/>
<path d="M318.044 105.87C318.532 105.87 318.959 105.513 319.032 105.015C319.112 104.469 318.734 103.961 318.188 103.881L269.859 96.7982C269.312 96.7191 268.804 97.0961 268.724 97.6424C268.644 98.1888 269.022 98.6966 269.569 98.7767L317.898 105.86C317.947 105.867 317.996 105.87 318.044 105.87V105.87Z" fill="#FFB6B6"/>
<path d="M601.943 395.616C602.28 395.048 603.738 395.657 604.006 395.141C604.273 394.627 602.918 393.845 602.145 392.056C602.005 391.734 601.126 389.702 601.777 389.075C603.011 387.886 608.656 392.791 610.632 391.186C611.066 390.834 611.369 390.131 612.681 388.989C613.203 388.535 613.519 388.33 613.824 388.406C614.258 388.514 614.292 389.094 614.757 390.235C615.454 391.946 615.866 391.843 616.273 393.208C616.574 394.221 616.505 394.81 616.86 394.925C617.362 395.087 617.824 394.013 618.461 394.109C619.11 394.207 619.503 395.458 619.627 396.395C619.859 398.154 619.214 399.314 618.856 400.534C618.467 401.86 618.236 403.876 619.134 406.73L628.024 431.777C626.061 426.637 620.379 412.549 617.991 407.313C617.302 405.802 616.54 404.269 614.978 403.664C613.473 403.081 611.407 403.429 608.772 402.794C608.465 402.72 607.611 402.503 607.503 402.001C607.415 401.586 607.917 401.354 607.84 400.965C607.736 400.443 606.748 400.437 605.535 399.835C604.679 399.411 604.146 398.906 603.688 398.472C603.549 398.342 601.495 396.373 601.943 395.616H601.943Z" fill="#818B7A"/>
<path d="M636.918 408.802C637.294 408.804 637.416 409.695 637.747 409.677C638.076 409.66 638.069 408.77 638.724 407.874C638.842 407.712 639.585 406.695 640.081 406.833C641.02 407.096 640.242 411.282 641.6 411.788C641.898 411.9 642.33 411.845 643.269 412.16C643.643 412.285 643.835 412.381 643.885 412.553C643.957 412.797 643.682 412.981 643.257 413.539C642.618 414.374 642.788 414.547 642.235 415.14C641.825 415.581 641.516 415.717 641.562 415.924C641.627 416.217 642.288 416.134 642.424 416.474C642.563 416.821 642.062 417.375 641.638 417.706C640.842 418.328 640.087 418.345 639.385 418.522C638.622 418.713 637.566 419.182 636.424 420.446L626.696 432.036C628.652 429.59 633.927 422.736 635.808 420.053C636.351 419.279 636.883 418.463 636.73 417.521C636.581 416.615 635.814 415.701 635.366 414.225C635.313 414.053 635.174 413.571 635.389 413.373C635.567 413.21 635.826 413.389 635.994 413.239C636.221 413.038 635.939 412.552 635.884 411.782C635.845 411.24 635.939 410.833 636.02 410.482C636.044 410.377 636.418 408.8 636.918 408.802V408.802Z" fill="#818B7A"/>
<path d="M629.416 410.486L629.643 408.464L629.539 408.31C629.06 407.601 628.816 406.909 628.813 406.252C628.813 406.147 628.818 406.043 628.823 405.936C628.842 405.514 628.866 404.99 628.593 404.379C628.44 404.038 628.009 403.249 627.362 403.347C627.187 403.371 627.055 403.451 626.955 403.545L626.909 403.473C626.708 403.165 626.548 403.033 626.394 402.906C626.276 402.808 626.154 402.708 625.963 402.47C625.879 402.365 625.813 402.273 625.758 402.196C625.591 401.963 625.372 401.684 624.986 401.689C624.574 401.709 624.358 402.05 624.215 402.275C623.96 402.678 623.844 402.968 623.767 403.16C623.74 403.23 623.708 403.309 623.692 403.334C623.559 403.529 622.479 403.347 622.073 403.28C621.159 403.128 620.368 402.996 620.043 403.572C619.809 403.984 619.983 404.529 620.573 405.235C620.758 405.455 620.953 405.622 621.127 405.753C620.983 405.839 620.854 405.971 620.802 406.178C620.679 406.668 621.1 407.159 622.054 407.639C622.291 407.76 622.61 407.92 623.056 407.997C623.267 408.033 623.456 408.042 623.618 408.047C623.622 408.14 623.644 408.242 623.701 408.346C623.868 408.654 624.217 408.801 624.742 408.765C625.321 408.735 625.797 408.625 626.217 408.528C626.583 408.444 626.899 408.373 627.147 408.389C627.607 408.427 627.962 408.795 628.378 409.272L629.416 410.486L629.416 410.486Z" fill="#818B7A"/>
<path d="M628.365 398.444L630.264 399.177L630.439 399.115C631.246 398.832 631.978 398.771 632.614 398.935C632.715 398.961 632.815 398.992 632.917 399.024C633.32 399.15 633.821 399.307 634.482 399.197C634.85 399.135 635.723 398.919 635.793 398.268C635.813 398.093 635.769 397.945 635.704 397.825L635.786 397.799C636.134 397.682 636.302 397.561 636.464 397.444C636.589 397.354 636.717 397.262 636.996 397.137C637.118 397.082 637.224 397.042 637.312 397.009C637.58 396.906 637.905 396.765 637.998 396.39C638.084 395.987 637.809 395.692 637.627 395.496C637.303 395.147 637.051 394.961 636.885 394.839C636.824 394.794 636.755 394.743 636.736 394.721C636.581 394.543 637.031 393.545 637.199 393.169C637.578 392.324 637.906 391.592 637.431 391.131C637.091 390.801 636.52 390.83 635.688 391.223C635.428 391.345 635.217 391.492 635.047 391.627C635 391.466 634.905 391.308 634.718 391.205C634.275 390.961 633.693 391.244 632.986 392.045C632.81 392.244 632.574 392.511 632.386 392.924C632.298 393.118 632.242 393.299 632.196 393.455C632.104 393.434 632 393.43 631.885 393.459C631.545 393.543 631.315 393.843 631.215 394.36C631.098 394.927 631.084 395.415 631.071 395.846C631.059 396.222 631.048 396.546 630.969 396.781C630.816 397.217 630.37 397.466 629.803 397.748L628.365 398.444H628.365Z" fill="#818B7A"/>
<path d="M629.416 392.486L629.643 390.464L629.539 390.31C629.06 389.601 628.816 388.909 628.813 388.252C628.813 388.147 628.818 388.043 628.823 387.936C628.842 387.514 628.866 386.99 628.593 386.379C628.44 386.038 628.009 385.249 627.362 385.347C627.187 385.371 627.055 385.451 626.955 385.545L626.909 385.473C626.708 385.165 626.548 385.033 626.394 384.906C626.276 384.808 626.154 384.708 625.963 384.47C625.879 384.365 625.813 384.273 625.758 384.196C625.591 383.963 625.372 383.684 624.986 383.689C624.574 383.709 624.358 384.05 624.215 384.275C623.96 384.678 623.844 384.968 623.767 385.16C623.74 385.23 623.708 385.309 623.692 385.334C623.559 385.529 622.479 385.347 622.073 385.28C621.159 385.128 620.368 384.996 620.043 385.572C619.809 385.984 619.983 386.529 620.573 387.235C620.758 387.455 620.953 387.622 621.127 387.753C620.983 387.839 620.854 387.971 620.802 388.178C620.679 388.668 621.1 389.159 622.054 389.639C622.291 389.76 622.61 389.92 623.056 389.997C623.267 390.033 623.456 390.042 623.618 390.047C623.622 390.14 623.644 390.242 623.701 390.346C623.868 390.654 624.217 390.801 624.742 390.765C625.321 390.735 625.797 390.625 626.217 390.528C626.583 390.444 626.899 390.373 627.147 390.389C627.607 390.427 627.962 390.795 628.378 391.272L629.416 392.486L629.416 392.486Z" fill="#818B7A"/>
<path d="M627.347 431.744L627.771 431.478L627.873 430.989L627.771 431.478L628.265 431.535C628.273 431.489 628.3 431.384 628.34 431.219C628.561 430.314 629.236 427.562 629.798 423.228C630.191 420.203 630.413 417.093 630.459 413.982C630.505 410.867 630.357 408.509 630.239 406.613C630.15 405.183 630.041 403.822 629.935 402.496C629.652 398.953 629.385 395.606 629.583 391.901C629.627 391.074 629.719 389.352 630.725 387.52C631.309 386.458 632.113 385.515 633.115 384.718L632.491 383.934C631.385 384.815 630.496 385.86 629.848 387.04C628.733 389.071 628.633 390.947 628.584 391.849C628.382 395.619 628.652 398.998 628.938 402.575C629.044 403.896 629.152 405.252 629.241 406.676C629.358 408.554 629.504 410.891 629.459 413.967C629.414 417.04 629.194 420.112 628.807 423.099C628.251 427.379 627.587 430.09 627.368 430.98C627.252 431.456 627.228 431.556 627.347 431.744H627.347Z" fill="#818B7A"/>
<path d="M634.948 386.307C634.989 386.307 635.031 386.306 635.073 386.303C635.925 386.257 636.713 385.747 637.417 384.788C637.747 384.337 637.916 383.822 638.253 382.796C638.305 382.638 638.559 381.835 638.714 380.73C638.815 380.009 638.802 379.707 638.659 379.44C638.5 379.143 638.243 378.936 637.954 378.797C637.967 378.701 637.957 378.602 637.915 378.502C637.745 378.085 637.292 378.14 637.047 378.166C636.923 378.182 636.768 378.202 636.601 378.193C636.338 378.181 636.197 378.102 635.983 377.985C635.779 377.873 635.524 377.733 635.147 377.656C634.403 377.501 633.779 377.712 633.573 377.781C632.492 378.141 631.959 378.982 631.342 379.956C631.218 380.151 630.796 380.862 630.517 381.837C630.316 382.54 630.344 382.852 630.405 383.085C630.528 383.562 630.819 383.836 631.556 384.439C632.327 385.071 632.714 385.388 633.046 385.58C633.819 386.026 634.304 386.307 634.948 386.307L634.948 386.307Z" fill="#818B7A"/>
<path d="M42.7323 281.689L42.2733 245.955L55.9903 242.181L55.5754 281.694L58.7313 310.892L58.6493 310.923C59.9723 312.253 61.0457 314.377 61.5028 316.887C62.3368 321.468 60.8081 325.582 58.0885 326.077C55.3688 326.573 52.488 323.261 51.654 318.68C51.3117 316.8 51.3728 315.003 51.7457 313.498L51.6236 313.544L42.7323 281.689V281.689Z" fill="#A0616A"/>
<path d="M67.6794 197.69C67.6794 197.69 61.4543 192.929 57.0601 199.887C52.6659 206.844 40.5818 241.998 40.5818 241.998C40.5818 241.998 37.0872 258.11 37.9191 260.49C38.7509 262.87 39.8495 283.819 39.8495 283.819L57.0183 280.705L56.6031 260.49L72.9636 234.376L67.6794 197.69V197.69Z" fill="#CCCCCC"/>
<path d="M182.664 184.712L158.604 211.136L146.005 204.529L173.283 175.94L190.91 152.45L190.991 152.484C190.933 150.608 191.598 148.324 192.978 146.178C195.495 142.261 199.421 140.298 201.747 141.793C204.072 143.288 203.916 147.675 201.398 151.591C200.365 153.199 199.094 154.47 197.794 155.315L197.914 155.365L182.664 184.712H182.664Z" fill="#A0616A"/>
<path d="M105.715 229.059C105.715 229.059 107.013 236.787 114.974 234.703C122.935 232.619 155.764 215.182 155.764 215.182C155.764 215.182 169.317 205.795 170.334 203.487C171.351 201.18 184.85 185.123 184.85 185.123L170.179 175.677L156.682 190.732L126.899 198.645L105.715 229.059V229.059Z" fill="#CCCCCC"/>
<path d="M101.155 177.489C90.6024 177.489 82.0476 168.934 82.0476 158.381C82.0476 147.828 90.6024 139.273 101.155 139.273C111.708 139.273 120.263 147.828 120.263 158.381C120.263 168.934 111.708 177.489 101.155 177.489Z" fill="#A0616A"/>
<path d="M67.6357 493.116L79.4948 493.114L85.1362 447.372L67.6333 447.373L67.6357 493.116Z" fill="#A0616A"/>
<path d="M108.266 492.847C108.636 493.468 108.831 495.476 108.831 496.199C108.831 498.422 107.029 500.224 104.806 500.224H68.0792C66.5627 500.224 65.3334 498.994 65.3334 497.478V495.949C65.3334 495.949 63.5165 491.353 67.257 485.689C67.257 485.689 71.906 490.124 78.8527 483.178L80.9012 479.467L95.7297 490.311L103.949 491.323C105.747 491.544 107.341 491.289 108.266 492.847H108.266V492.847Z" fill="#33412E"/>
<path d="M101.636 493.116L113.495 493.114L119.136 447.372L101.633 447.373L101.636 493.116Z" fill="#A0616A"/>
<path d="M142.266 492.847C142.636 493.468 142.831 495.476 142.831 496.199C142.831 498.422 141.029 500.224 138.806 500.224H102.079C100.563 500.224 99.3333 498.994 99.3333 497.478V495.949C99.3333 495.949 97.5165 491.353 101.257 485.689C101.257 485.689 105.906 490.124 112.853 483.178L114.901 479.467L129.73 490.311L137.949 491.323C139.747 491.544 141.341 491.289 142.266 492.847H142.266V492.847Z" fill="#33412E"/>
<path d="M59.2246 294.601L136.225 298.601L119.225 472.601L102.225 471.601L96.2246 366.601L93.7246 329.101L83.5278 468.723L66.2246 468.601L59.2246 294.601Z" fill="#33412E"/>
<path d="M82.0352 182.601L111.198 181.601L130.725 201.018V264.628L138.35 304.601C138.35 304.601 87.0633 299.601 77.0071 309.601C66.951 319.601 48.8499 312.601 48.8499 312.601L57.9004 259.715L61.9229 198.601L82.0352 182.601Z" fill="#CCCCCC"/>
<path d="M92.7434 177.101L108.999 173.26L111.507 163.405C111.507 163.405 111.567 158.759 113.761 158.241C115.954 157.723 119.822 154.494 119.822 154.494L116.075 148.432C116.075 148.432 125.107 147.456 122.395 145.781C119.684 144.106 119.292 144.86 118.907 140.816C118.11 132.447 92.5038 133.669 90.5148 138.26C90.5148 138.26 87.2249 139.038 85.5497 141.749C83.8746 144.46 83.0371 145.816 81.9404 146.075C80.8438 146.334 80.2652 148.787 80.2652 148.787C80.2652 148.787 76.3968 152.016 77.7526 152.854C79.1083 153.691 80.1446 158.078 80.1446 158.078C80.1446 158.078 76.5352 162.404 84.6091 172.075L88.9106 178.995L92.7434 177.101V177.101Z" fill="#33412E"/>
<path d="M71.8696 205.202L70.7301 197.454C69.8997 191.807 73.6451 186.879 78.7246 185.666V182.454C78.7246 179.693 80.9631 177.454 83.7246 177.454C86.486 177.454 88.7246 179.693 88.7246 182.454V186.739L107.725 190.769V185.454C107.725 182.693 109.963 180.454 112.725 180.454C115.486 180.454 117.725 182.693 117.725 185.454V190.506L119.613 190.013C125.254 188.541 129.711 195.013 126.202 199.669C126.157 199.729 126.111 199.79 126.064 199.85C121.38 205.871 120.042 211.224 120.042 211.224L123.388 229.289L119.577 266.846C119.086 271.687 114.92 275.314 110.058 275.134L73.065 273.764C68.2067 273.584 64.3173 269.666 64.1849 264.807C63.7137 247.496 63.6595 209.82 71.8696 205.202V205.202Z" fill="#3D564C"/>
<path d="M104.989 270.098C105.508 270.098 105.946 269.698 105.985 269.173L107.993 242.41C108.034 241.859 107.621 241.379 107.07 241.338C106.524 241.295 106.04 241.71 105.999 242.261L103.991 269.023C103.95 269.574 104.363 270.054 104.914 270.095C104.939 270.097 104.964 270.098 104.989 270.098V270.098Z" fill="#FFB6B6"/>
<path d="M120.044 212.224C120.532 212.224 120.959 211.866 121.032 211.369C121.112 210.823 120.734 210.315 120.188 210.235L71.8584 203.152C71.312 203.073 70.8042 203.45 70.7242 203.996C70.6441 204.542 71.022 205.05 71.5684 205.13L119.898 212.213C119.947 212.221 119.996 212.224 120.044 212.224V212.224Z" fill="#FFB6B6"/>
<path d="M117.838 271.699L136.725 226.101L131.725 228.101L111.611 268.502L117.838 271.699Z" fill="#3D564C"/>
<path d="M0 500.164C0 500.628 0.376087 501.004 0.840027 501.004H583.04V499.324H0.840027C0.376097 499.324 0 499.701 0 500.164V500.164Z" fill="#818B7A"/>
<path d="M206.364 143.671C203.121 146.722 198.918 147.521 196.977 145.457C195.035 143.393 196.091 139.247 199.336 136.195C200.615 134.958 202.172 134.046 203.877 133.534L217.781 120.78L223.627 127.433L209.299 139.3C208.684 140.97 207.678 142.469 206.364 143.671V143.671Z" fill="#FFB6B6"/>
<path d="M218.264 77.5923C218.264 77.5923 235.217 56.4734 241.725 58.1004C249.725 60.1004 247.725 68.1004 256 89.4965C258.072 94.855 260.249 100.048 256.066 103.987L244.534 114.848L219.95 135.576L210.06 125.223L229.708 99.8863L218.264 77.5923L218.264 77.5923Z" fill="#7FA644"/>
</g>
<defs>
<clipPath id="clip0_61_13">
<rect width="654.04" height="501.005" fill="white" transform="matrix(-1 0 0 1 654.04 0)"/>
</clipPath>
</defs>
</svg>
