<svg width="870" height="521" viewBox="0 0 870 521" fill="none" xmlns="http://www.w3.org/2000/svg">
<g clip-path="url(#clip0_63_12)">
<path d="M203.907 514.257C215.046 504.845 221.811 489.977 220.037 475.503C218.263 461.029 207.273 447.723 193.019 444.649C178.764 441.576 162.515 450.084 158.185 464.009C155.802 437.162 153.056 409.191 138.783 386.329C125.859 365.628 103.474 350.815 79.2143 348.165C54.9543 345.515 29.4117 355.524 14.2817 374.672C-0.848408 393.82 -4.55296 421.658 6.04375 443.641C13.85 459.836 28.2317 471.888 43.3003 481.693C91.9923 513.11 150.392 525.886 207.754 517.67L203.907 514.257Z" fill="#7FA644"/>
<path d="M38.2723 356.079C58.2898 372.383 76.6538 390.619 93.0985 410.521C118.835 441.562 139.66 476.364 154.851 513.715C155.963 516.44 151.538 517.626 150.438 514.931C125.584 454.228 85.9077 400.724 35.0368 359.314C32.7524 357.454 36.0068 354.234 38.2723 356.079Z" fill="white"/>
<path d="M589.933 511.699C574.634 498.772 565.342 478.351 567.779 458.471C570.216 438.591 585.31 420.315 604.888 416.094C624.467 411.872 646.786 423.558 652.733 442.684C656.005 405.81 659.777 367.392 679.381 335.991C697.132 307.558 727.878 287.213 761.199 283.573C794.52 279.933 829.603 293.68 850.384 319.98C871.165 346.28 876.253 384.515 861.699 414.709C850.977 436.952 831.223 453.506 810.527 466.973C744.497 509.939 662.588 527.858 584.649 516.388" fill="#7FA644"/>
<path d="M817.433 294.442C789.939 316.836 764.716 341.882 742.13 369.218C719.539 396.526 699.651 425.961 682.743 457.109C673.293 474.582 664.804 492.557 657.313 510.955C655.786 514.698 661.863 516.327 663.373 512.626C676.641 480.19 693.056 449.133 712.382 419.899C731.615 390.771 753.628 363.578 778.111 338.701C791.959 324.637 806.57 311.345 821.877 298.886C825.015 296.331 820.545 291.908 817.433 294.442L817.433 294.442Z" fill="white"/>
<path d="M245.5 519H610.5V144.5C610.5 64.8223 545.678 0 466 0H390C310.322 0 245.5 64.8223 245.5 144.5V519Z" fill="#7FA644"/>
<path d="M321.5 519H610.5V144.5C610.58 113.969 600.912 84.2103 582.904 59.5557C582.24 58.6509 581.578 57.7578 580.896 56.8745C572.185 45.4506 561.82 35.3897 550.141 27.0239C549.482 26.5439 548.819 26.0723 548.147 25.6006C538.375 18.838 527.804 13.3097 516.675 9.1416C516.014 8.89111 515.341 8.64013 514.668 8.3994C504.603 4.80747 494.17 2.34703 483.56 1.06348C482.902 0.973628 482.227 0.903319 481.552 0.833009C471.213 -0.272461 460.785 -0.272461 450.446 0.833009C449.773 0.903319 449.098 0.973619 448.432 1.06444C437.825 2.34807 427.394 4.80822 417.332 8.39945C416.659 8.64018 415.986 8.89114 415.323 9.14212C404.331 13.2577 393.885 18.7035 384.217 25.3579C383.545 25.8194 382.873 26.2911 382.21 26.7627C375.664 31.4355 369.515 36.6412 363.827 42.3267C359.265 46.8871 355.014 51.7483 351.102 56.8775C350.422 57.7579 349.76 58.6509 349.097 59.5543C331.089 84.2091 321.42 113.969 321.5 144.5V519Z" fill="#CCCCCC"/>
<path d="M345 351.5C336.163 351.5 329 344.337 329 335.5C329 326.663 336.163 319.5 345 319.5C353.837 319.5 361 326.663 361 335.5C361 344.337 353.837 351.5 345 351.5Z" fill="#7FA644"/>
<path d="M275.401 507.783H287.661L293.494 460.495L275.399 460.496L275.401 507.783Z" fill="#FBE9E9"/>
<path d="M296.418 504.28H272.774V519.167H311.305C311.305 517.212 310.92 515.276 310.172 513.47C309.424 511.664 308.327 510.022 306.945 508.64C305.563 507.258 303.921 506.161 302.115 505.413C300.309 504.665 298.373 504.28 296.418 504.28V504.28Z" fill="#2F2E41"/>
<path d="M214.401 507.783H226.661L232.494 460.495L214.399 460.496L214.401 507.783Z" fill="#FBE9E9"/>
<path d="M235.418 504.28H211.774V519.167H250.305C250.305 517.212 249.92 515.276 249.172 513.47C248.424 511.664 247.327 510.022 245.945 508.64C244.563 507.258 242.921 506.161 241.115 505.413C239.309 504.665 237.373 504.28 235.418 504.28V504.28Z" fill="#2F2E41"/>
<path d="M336.902 338.67C337.784 337.37 338.371 335.893 338.62 334.343C338.869 332.792 338.776 331.206 338.346 329.695C337.916 328.185 337.16 326.787 336.131 325.6C335.102 324.413 333.826 323.467 332.392 322.827L290.716 207.96L270.209 219.151L317.794 328.922C316.878 331.403 316.904 334.133 317.867 336.595C318.83 339.058 320.663 341.082 323.018 342.283C325.374 343.485 328.088 343.781 330.647 343.115C333.206 342.449 335.432 340.867 336.902 338.67V338.67Z" fill="#FBE9E9"/>
<path d="M220.664 360.254C222.026 359.472 223.201 358.402 224.105 357.118C225.009 355.834 225.62 354.367 225.896 352.821C226.172 351.275 226.105 349.687 225.701 348.169C225.297 346.652 224.565 345.241 223.557 344.037L236.467 222.528L213.13 223.594L207.764 343.114C205.853 344.942 204.68 347.408 204.465 350.043C204.251 352.678 205.011 355.301 206.601 357.414C208.191 359.526 210.501 360.982 213.093 361.506C215.684 362.029 218.378 361.584 220.664 360.254V360.254Z" fill="#FBE9E9"/>
<path d="M257.894 186.684C244.329 186.684 233.333 175.687 233.333 162.123C233.333 148.558 244.329 137.562 257.894 137.562C271.459 137.562 282.455 148.558 282.455 162.123C282.455 175.687 271.459 186.684 257.894 186.684Z" fill="#FBE9E9"/>
<path d="M220.82 332.619H294.867L294.778 332.043C294.645 331.181 281.581 245.604 291.216 217.607C292.183 214.855 292.098 211.844 290.978 209.151C289.857 206.459 287.78 204.276 285.147 203.023H285.147C271.375 196.538 244.939 188.552 222.627 207.932C219.343 210.831 216.779 214.454 215.138 218.515C213.496 222.575 212.821 226.962 213.167 231.328L220.82 332.619Z" fill="#D84864"/>
<path d="M280.646 258.25L313.982 251.487L298.356 214.457C297.421 210.871 295.102 207.802 291.907 205.923C288.712 204.044 284.902 203.51 281.313 204.436C277.724 205.363 274.649 207.675 272.763 210.865C270.877 214.056 270.333 217.864 271.25 221.455L280.646 258.25Z" fill="#D84864"/>
<path d="M237.95 270.808L239.954 224.867C241.474 216.23 236.53 208.066 228.927 206.732C221.321 205.402 213.895 211.392 212.368 220.092L204.835 263.019L237.95 270.808Z" fill="#D84864"/>
<path d="M223.284 327.119C211.37 372.495 210.07 430.188 213.284 493.119L229.284 491.119L258.284 371.119L274.284 493.119L292.284 492.119C297.662 426.089 302.897 369.403 294.284 332.119L223.284 327.119Z" fill="#2F2E41"/>
<path d="M241.711 181.104C246.293 185.985 254.802 183.365 255.399 176.697C255.446 176.179 255.443 175.658 255.389 175.141C255.081 172.188 253.375 169.506 253.783 166.388C253.876 165.611 254.165 164.872 254.623 164.239C258.275 159.349 266.846 166.425 270.292 161.999C272.405 159.285 269.921 155.012 271.542 151.979C273.682 147.975 280.021 149.95 283.996 147.758C288.419 145.318 288.154 138.532 285.243 134.405C281.693 129.371 275.467 126.685 269.32 126.298C263.172 125.911 257.067 127.573 251.327 129.81C244.806 132.351 238.34 135.863 234.327 141.597C229.447 148.57 228.977 157.945 231.418 166.099C232.902 171.059 237.969 177.118 241.711 181.104Z" fill="#2F2E41"/>
<path d="M30.0183 519.644H768.312C768.627 519.643 768.929 519.517 769.152 519.294C769.375 519.07 769.5 518.768 769.5 518.453C769.5 518.138 769.375 517.835 769.152 517.612C768.929 517.389 768.627 517.263 768.312 517.262H30.0183C29.7031 517.263 29.4011 517.389 29.1786 517.612C28.956 517.835 28.8311 518.138 28.8311 518.453C28.8311 518.768 28.956 519.07 29.1786 519.294C29.4011 519.517 29.7031 519.643 30.0183 519.644V519.644Z" fill="#3F3D56"/>
<path d="M401 410.5H531C532.712 410.509 534.358 409.839 535.576 408.636C536.795 407.433 537.487 405.797 537.5 404.085V113.915C537.487 112.203 536.795 110.566 535.576 109.364C534.358 108.161 532.712 107.491 531 107.5H401C399.288 107.491 397.642 108.161 396.424 109.364C395.205 110.566 394.513 112.203 394.5 113.915V404.085C394.513 405.797 395.205 407.433 396.424 408.636C397.642 409.839 399.288 410.509 401 410.5V410.5Z" fill="white"/>
<path d="M394.5 201.39H537.5V203.39H394.5V201.39Z" fill="#CCCCCC"/>
<path d="M394 315.5H537V317.5H394V315.5Z" fill="#CCCCCC"/>
<path d="M490.5 107.5H492.5V411.5H490.5V107.5Z" fill="#CCCCCC"/>
<path d="M440.5 107.5H442.5V411.5H440.5V107.5Z" fill="#CCCCCC"/>
</g>
<defs>
<clipPath id="clip0_63_12">
<rect width="870" height="520.139" fill="white" transform="matrix(-1 0 0 1 870 0)"/>
</clipPath>
</defs>
</svg>
